<svg xmlns="http://www.w3.org/2000/svg" viewBox="0 0 640 160" width="640" height="160" style="background-color:black;">
  <!-- Run Right -->
  <g transform="translate(0, 0)">
    <line x1="50" y1="70" x2="50" y2="110" stroke="white" stroke-width="6"/> <!-- Body -->
    <line x1="50" y1="85" x2="70" y2="60" stroke="white" stroke-width="6"/> <!-- Right Arm Forward -->
    <line x1="50" y1="85" x2="30" y2="110" stroke="white" stroke-width="6"/> <!-- Left Arm Back -->
    <line x1="50" y1="110" x2="70" y2="140" stroke="white" stroke-width="6"/> <!-- Right Leg Forward -->
    <line x1="50" y1="110" x2="30" y2="130" stroke="white" stroke-width="6"/> <!-- Left Leg Back -->
    <circle cx="50" cy="50" r="20" fill="white"/> <!-- Head -->
  </g>

  <!-- Run Left -->
  <g transform="translate(160, 0)">
    <line x1="50" y1="70" x2="50" y2="110" stroke="white" stroke-width="6"/> <!-- Body -->
    <line x1="50" y1="85" x2="30" y2="60" stroke="white" stroke-width="6"/> <!-- Left Arm Forward -->
    <line x1="50" y1="85" x2="70" y2="110" stroke="white" stroke-width="6"/> <!-- Right Arm Back -->
    <line x1="50" y1="110" x2="30" y2="140" stroke="white" stroke-width="6"/> <!-- Left Leg Forward -->
    <line x1="50" y1="110" x2="70" y2="130" stroke="white" stroke-width="6"/> <!-- Right Leg Back -->
    <circle cx="50" cy="50" r="20" fill="white"/> <!-- Head -->
  </g>

  <!-- Run Up -->
  <g transform="translate(320, 0)">
    <line x1="50" y1="70" x2="50" y2="110" stroke="white" stroke-width="6"/> <!-- Body -->
    <line x1="50" y1="85" x2="30" y2="70" stroke="white" stroke-width="6"/> <!-- Left Arm -->
    <line x1="50" y1="85" x2="70" y2="70" stroke="white" stroke-width="6"/> <!-- Right Arm -->
    <line x1="50" y1="110" x2="40" y2="140" stroke="white" stroke-width="6"/> <!-- Left Leg -->
    <line x1="50" y1="110" x2="60" y2="140" stroke="white" stroke-width="6"/> <!-- Right Leg -->
    <circle cx="50" cy="50" r="20" fill="white"/> <!-- Head -->
  </g>

  <!-- Run Down -->
  <g transform="translate(480, 0)">
    <line x1="50" y1="70" x2="50" y2="110" stroke="white" stroke-width="6"/> <!-- Body -->
    <line x1="50" y1="85" x2="30" y2="100" stroke="white" stroke-width="6"/> <!-- Left Arm -->
    <line x1="50" y1="85" x2="70" y2="100" stroke="white" stroke-width="6"/> <!-- Right Arm -->
    <line x1="50" y1="110" x2="30" y2="140" stroke="white" stroke-width="6"/> <!-- Left Leg -->
    <line x1="50" y1="110" x2="70" y2="140" stroke="white" stroke-width="6"/> <!-- Right Leg -->
    <circle cx="50" cy="50" r="20" fill="white"/> <!-- Head -->
  </g>
</svg>
